<svg width="251" height="151" viewBox="0 0 251 151" fill="none" xmlns="http://www.w3.org/2000/svg">
<rect x="0.200684" y="0.757141" width="250" height="250" fill="#B1B1B1"/>
<g clip-path="url(#clip0)">
<path d="M89.4648 53.2514H96.6478V103.533H146.93V110.716H96.6478C94.7573 110.67 92.957 109.899 91.6198 108.561C90.2826 107.224 89.511 105.424 89.4648 103.533V53.2514ZM160.937 89.1674C160.891 91.058 160.119 92.8583 158.782 94.1955C157.445 95.5327 155.644 96.3043 153.754 96.3504H110.654C108.763 96.3045 106.963 95.533 105.625 94.1958C104.288 92.8585 103.517 91.058 103.471 89.1674V46.0674C103.517 44.1768 104.288 42.3764 105.625 41.0391C106.963 39.7019 108.763 38.9303 110.654 38.8844H153.754C155.644 38.9306 157.445 39.7022 158.782 41.0394C160.119 42.3766 160.891 44.1769 160.937 46.0674V89.1674ZM121.789 74.8014L111.014 89.1674H154.114L139.748 71.2094L128.973 84.4984L121.789 74.8014Z" fill="#DCDCDC"/>
</g>
<defs>
<clipPath id="clip0">
<rect width="71.472" height="71.832" fill="white" transform="translate(89.4648 38.8854)"/>
</clipPath>
</defs>
</svg>
